/* XPM */
static char *about1[]={
"20 20 6 1",
". c None",
"# c #000000",
"d c #808080",
"c c #c0c0c0",
"b c #ff0000",
"a c #ffffff",
"....................",
".##########.........",
".#aaaaaaaa#...bbbc..",
".#aaaaaaaa#...bbbd..",
".#aaaaaaaa#..bbbbd..",
".##########..bbbbd..",
"............bbdbbd..",
"............bbdbbd..",
"...........bbdcbbd..",
"...........bbdcbbd..",
"..........bbdccbbd..",
"..........bbbbbbbbd.",
".........bbbbbbbbbd.",
".........bbddddbbdd.",
"........bbd....bbd..",
"........bbd....bbd..",
".......bbd.....bbd..",
".......dd......ddd..",
"....................",
"...................."};
