/* XPM */
static const char *app_icon[]={
"32 32 13 1",
"g c #808080",
"# c #008000",
". c #cdc3c3",
"i c #ff00ff",
"f c #00ff00",
"c c #c0c0c0",
"e c #00ffff",
"a c #000000",
"b c #ffff00",
"k c None",
"h c #800000",
"d c #0000ff",
"j c #ffffff",
"kkkkkkkkkkkkkkkkkkkkkkkkkkkkkkkk",
"kkkkkkkkkkkkkkkkkkkkkkkkkkkkkkkk",
"kk###########################akk",
"kk###########################akk",
"kk###########################akk",
"kk##bbb#ccc##aaa#bbb#ddd#####akk",
"kk##bbbeccceeaaaebbbeddd#####akk",
"kk##bbb#ccc##aaa#bbb#ddd#####akk",
"kk################e##########akk",
"kk################e##########akk",
"kk######bbb##fff##e##########akk",
"kk######bbbeefffeee##########akk",
"kk######bbb##fff#############akk",
"kk########e##gggggggggggggggggak",
"kk########e##gddddddddddddddddak",
"kk##hhh##iii#gdddbddddddddddddak",
"kk##hhheeiii#gdddbddddddddddddak",
"kk##hhh##iii#gddbbddddbdddddddak",
"kk###########gddbdbdddbdddddddak",
"kk###########gdbddbdddbbddddddak",
"kk###########gjbjjbjjbjbjjjjjdak",
"kk###########gddddbddbddbdddddak",
"kk###########gddddbddbddbdddddak",
"kk###########gddddbddbdddbddddak",
"kk###########gdddddbbddddbddddak",
"kkkaaaaaaaaaaadddddbbdddddbdddak",
"kkkkkkkkkkkkkkdddddbbdddddbdddak",
"kkkkkkkkkkkkkkdddddddddddddbddak",
"kkkkkkkkkkkkkkkaaaaaaaaaaaaaaaak",
"kkkkkkkkkkkkkkkkkkkkkkkkkkkkkkkk",
"kkkkkkkkkkkkkkkkkkkkkkkkkkkkkkkk",
"kkkkkkkkkkkkkkkkkkkkkkkkkkkkkkkk"};
