/* XPM */
static char*corr[]={
"32 32 5 1",
". c #ff00ff",
"# c #800080",
"a c #ffff00",
"c c #ffffff",
"b c #ff0000",
".............................###",
".............................###",
".............................###",
".............................###",
".............................###",
".............................###",
".............................###",
".............................###",
".............................###",
".............................###",
".............................###",
"################################",
"##aaa###########################",
"#a###a##########################",
"#a##############################",
"#a######a##aaa#aaa##############",
"#a#####a#a#a###a##############b#",
"#a###a#a#a#a###a###########bbb##",
"##aaa###a##a###a##ccc###bbbb####",
"#################c###bbbb#######",
"##########c######cbbbb#c########",
"##########c####bbb#####c########",
"#########c#cbbbbc######c########",
"#####c###bbb###c########c####c##",
"####c#bbbb#cccc#########c###c###",
"###bbb#c#################ccc####",
"####c###########################",
"###c############################",
"################################",
"################################",
"################################",
"################################"};
