/* XPM */
static char*func[]={
"32 32 5 1",
"c c #808080",
"b c #000000",
"a c #0000ff",
". c #dcdcdc",
"# c #ff0000",
"................................",
"................................",
"................................",
"................................",
"................................",
"................................",
"................................",
"................................",
"................................",
"............aaaaaa..aaaa........",
"............a....a..a..a........",
"............a....a..a..a........",
"............a....a..a..a........",
"..aaaaaaaaaaa....aaaa..aaaaaaa..",
"................................",
"...............b................",
"..............b.b...............",
"..............b.b...............",
"..###########b##b############...",
".............b...b..............",
"......b......b...b..............",
".....b.b....b.....b.............",
".....b.b....b.....b....bbbb.....",
"....b...b...b.....b....b..b.....",
"....b...b..b.......b...b..bbb...",
"...b.....b.b.......b...b........",
"...b.....b.b.......b...b........",
"..........b.........b..b........",
"..##################b##b######..",
"....................b..b........",
".....................bb.........",
"................................"
};
