/* XPM */
static const char *data[]={
"32 32 3 1",
"a c #000000",
". c None",
"# c #ffffff",
"................................",
"................................",
"................................",
"................................",
"................................",
".....######################.....",
".....######################.....",
".....######################.....",
".....##aaaaaaaaaaaaaaaaa###.....",
".....######################.....",
".....######################.....",
".....##aaaa##aaaaaaaaaaa###.....",
".....######################.....",
".....######################.....",
".....#########aaaaaaaaaaa##.....",
".....##aaaa################.....",
".....########aaaaaaaaaaa###.....",
".....######################.....",
".....######################.....",
".....###aaa##aaaaaaaaaaa###.....",
".....######################.....",
".....######################.....",
".....######################.....",
".....##aaaaaaa#aaaaaaaaaa##.....",
".....######################.....",
".....######################.....",
".....##aaaaaaaaaaaaaaaaaa##.....",
".....######################.....",
".....######################.....",
"................................",
"................................",
"................................"};
