/* XPM */
static const char *editmodel_icon[] = {
/* width height num_colors chars_per_pixel */
"    32    32       16            1",
/* colors */
"` c #000000",
". c None",
"# c #008000",
"a c #808000",
"b c #000080",
"c c #800000",
"d c #008080",
"e c #808080",
"f c #c0c0c0",
"g c #ff0000",
"h c #00ff00",
"i c #ffff00",
"j c #0000ff",
"k c #ff00ff",
"l c #00ffff",
"m c #ffffff",
/* pixels */
"................................",
"................................",
"................................",
"..############################..",
"..############################..",
"..####``````````##############..",
"..####``````````##############..",
"..####`#######``##############..",
"..############``###########`##..",
"..############``````````````##..",
"..############``````````````##..",
"..####`#######``###########`##..",
"..####``````````##############..",
"..####``````````##############..",
"..############################..",
"..#####iiiiii#################..",
"..#####bbbiii#################..",
"..###mmiiiiiimm#gggggg#hhhhhh#..",
"..###m#iiiiii#m#gbbbgg#hhhhhh#..",
"..###m#iiiiii#m#gggggg#hh`hhh#..",
"..#mmm########mmggggggmhh`hhh#..",
"..###m#jjjjjj#m#gggggg#hh`hhh#..",
"..###m#jjjjjj#m#gggggg#hhhhhh#..",
"..###mmjjjjjjmm#gggggg#hhhhhh#..",
"..#####jjjjjj#################..",
"..#####jjjjjj#################..",
"..#####jjjjjj#################..",
"..############################..",
"..############################..",
"................................",
"................................",
"................................"
};

