/* XPM */
static const char *elm_icon[]={
"22 22 18 1",
"b c #008000",
"n c #ff00ff",
"i c #000000",
"f c #00ff00",
"g c #ffc0c0",
"j c #800080",
"o c #00ffff",
"k c #0000c0",
"p c #ffc0ff",
"h c #c0ffc0",
"# c #303030",
". c None",
"a c #800000",
"m c #0000ff",
"c c #c00000",
"d c #00c000",
"l c #c000c0",
"e c #ffff00",
"......................",
"......................",
"......................",
"......................",
"......................",
".....mmmmmmmmmmmmm....",
".....mmmmmmmmmmmmm....",
".....mmmeeeeeemmmm....",
".....mmmnffeddmmmm....",
".....mmmnffeddmmmm....",
".....mmmnffeddmmmm....",
".....mmeeeeeeeemmm....",
".....mmmmmmemmmmmm....",
".....mmmmmmemmmmmm....",
".....mmmmmmmmmmmmm....",
"......................",
"......................",
"......................",
"......................",
"......................",
"......................",
"......................"};
