/* XPM */
static const char *exit_icon[] = {
/* width height num_colors chars_per_pixel */
"    20    20       16            1",
/* colors */
"` c #000000",
". c #800000",
"# c #008000",
"a c #808000",
"b c #000080",
"c c #800080",
"d c #008080",
"e c #808080",
"f c None",
"g c #ff0000",
"h c #00ff00",
"i c #ffff00",
"j c #0000ff",
"k c #ff00ff",
"l c #00ffff",
"m c #ffffff",
/* pixels */
"ffffffffffffffffffff",
"fffffff``````fffffff",
"fffffff`h##h`fffffff",
"fffffff``````fffffff",
"ffffffffffffffffffff",
"fffffbbbbbbbbbbfffff",
"fffffb.e.`miimbfffff",
"fffffbe.e`mlmlbfffff",
"fffffb.e.`lmlmbfffff",
"fffffbe.e`mlmlbfffff",
"fffffb.e.`mmmmbfffff",
"fffffbe.e`mlmlbfffff",
"fffffb.e.`mmmmbfffff",
"fffffbe.e`mlmlbfffff",
"fffffb.e.`hhhhbfffff",
"fffffbe.e`hhhhbfffff",
"fffffb.e``hhhhbfffff",
"bbbbbb``eeehhhbbbbbb",
"eeeeeeeeeeeffmfmfeee",
"eeeeeeeeeeeemfmfmfee"
};
