/* XPM */
static const char *filenew[]={
"16 16 4 1",
". c None",
"# c #000000",
"a c #00c000",
"b c #ffff00",
"................",
"................",
"................",
"..############..",
"..#aaaaaaaaaa#..",
"..#aaaabbaaaa#..",
"..#aaaabbaaaa#..",
"..#aabbbbbbaa#..",
"..#aabbbbbbaa#..",
"..#aaaabbaaaa#..",
"..#aaaabbaaaa#..",
"..#aaaaaaaaaa#..",
"..############..",
"................",
"................",
"................"};
