/* XPM */
static char*fourier[]={
"32 32 6 1",
". c #ff00ff",
"b c #00ff00",
"# c #800080",
"c c #ffff00",
"d c #ffffff",
"a c #ff0000",
".............................###",
".............................###",
".............................###",
".............................###",
".............................###",
".............................###",
".............................###",
".............................###",
".............................###",
".............................###",
".............................###",
"################################",
"####################aaa#########",
"################b###a###########",
"###############bbb##aa#aaa#a#a##",
"###############b#b##a##a#a#a#a##",
"##############b###b#a##aaa#aaaa#",
"##############b###b#############",
"######cc#####b#####b####cc######",
"#####c##c####b#####b###c##c#####",
"####c####c##b#######b#c####c####",
"###c######c#b#######bc######c###",
"#dcddddddddbddddddddcbdddddddcd#",
"###########bc######c##b#######c#",
"##########b##c####c###b#######b#",
"##########b###c##c#####b######b#",
"#########b#####cc######b#####b##",
"####b####b##############b####b##",
"####b###b###############b###b###",
"#####b##b################b##b###",
"#####bbb#################bbb####",
"################################"};
