/* XPM */
static char*func[]={
"32 32 5 1",
"c c #808080",
"b c #000000",
"a c #0000ff",
". c #dcdcdc",
"# c #ff0000",
"................................",
"................................",
"................................",
"................................",
"................................",
"................................",
"................................",
"..............###...............",
"............##.##...............",
"............#..##...............",
"...........##...................",
"...........##...................",
"..........###...................",
"..........##....................",
".......#########................",
"..........##....................",
".........###....................",
".........###....................",
".........##.....................",
".........##............bbb......",
".........##...........b...b.....",
"........###..............b......",
"........###...bb...bb...b.......",
"........##......b.b....b...b....",
"........##......b.b...bbbbb.....",
"........##.......b..............",
".......##........b..............",
".......##........b..............",
"...##.##........b.b.............",
"...#####........b.b.............",
"....###.......bb...bb...........",
"................................"
};
