/* XPM */
static char*func[]={
"32 32 5 1",
"c c #808080",
"b c #000000",
"a c #0000ff",
". c #dcdcdc",
"# c #ff0000",
"................................",
"................................",
"................................",
"................................",
"................................",
"................................",
"................................",
"..............###...............",
"............##.##...............",
"............#..##...............",
"...........##...................",
"...........##...................",
"..........###...................",
"..........##....................",
".......#########................",
"..........##....................",
".........###....................",
".........###....................",
".........##...........#.........",
".........##..........#.#........",
".........##.........#...#.......",
"........###.........#...#.......",
"........###.........#...#.......",
"........##.....aa...#...#....aa.",
"........##....a..a.#.....#..a...",
"........##...a....#.......#a....",
".......##..cacccc#caccccccac#c..",
".......##...........a....a......",
"...##.##.............a..a.......",
"...#####..............aa........",
"....###.........................",
"................................"};
