/* XPM */
static const char *hyst_l[]={
"32 32 3 1",
"# c #c0c0c0",
"a c #ffff00",
". c #0000ff",
"................................",
"................................",
"................................",
"................................",
"................................",
"................................",
"..............#.................",
"..............#....a............",
"..............#...a.............",
"..............#..a.........a....",
"..............#.a.........a.....",
"..............#a.........a......",
".............aaaaaaaaaaaaa......",
"............aaaaaaaaaaaaa.......",
"...........aa.a.......aa........",
"..........aa..#......aa.........",
".........aa...#.....aa..........",
".#######aa####aaaaaaa#######....",
".......aa.....#...aa............",
"......aa......#..aa.............",
".....aa.......#.aa..............",
"....aa........#aa...............",
"...aa.........aa................",
"..aaaaaaaaaaaa#.................",
".aaaaaaaaaaaa.#.................",
".a.........a..#.................",
"..........a...#.................",
".........a....#.................",
"........a.....#.................",
".......a......#.................",
"..............#.................",
"................................"};
