/* XPM */
static const char *infoelm_icon[]={
"22 22 7 1",
". c None",
"# c #000080",
"b c #0000ff",
"c c #00c000",
"x c #c0c0c0",
"d c #ffff00",
"a c #ffffff",
"......................",
".......######.........",
"......##aaaa##........",
".....####aa####.......",
"....#####aa#####......",
"...######aa######.....",
"...######aa######.....",
"...######aa######.....",
"...######aa######.....",
"...######aa######x....",
"...######aa######x....",
"....#####aa#####xx....",
".....####aa####xxb....",
".....x##aaaa##xxbb....",
".....bxx#####xbbbb....",
".....bbdxxxxxddbbb....",
".....bbbbbbdbbbbbb....",
".....bbbbbbdbbbbbb....",
".....bbbbbbbbbbbbb....",
"......................",
"......................",
"......................"};
