/* XPM */
static const char *icon[] = {
/* width height num_colors chars_per_pixel */
"    32    32        5            1",
/* colors */
"c c #808080",
"b c #000000",
"a c #0000ff",
". c #dcdcdc",
"# c #ff0000",
"................................",
"................................",
"................................",
"................................",
"................................",
"................................",
"................................",
"................................",
"............................bb..",
".......................bbbbb....",
"....................bbb.........",
".................bbb............",
"..............bbb...............",
"............bbaaaaaaaaaaaaaaaaa.",
"..........bbaaaaaaaaaaaaaaaaaaa.",
".........bb.....................",
"........bb......................",
".......bb.......................",
"......bb........................",
".....bb.........................",
"....bb..........................",
"....bb..........................",
".ccbbcccccccccccccccccccccccccc.",
"................................",
"............##..................",
"............##..................",
"............##..................",
"............##..................",
"............##..................",
"............##..................",
".###########cc#################.",
"................................"
};
