/* XPM */
static char*func[]={
"32 32 8 1",
"c c #808080",
"b c #000000",
"a c #0000ff",
"g c #00ff00",
"m c #ff00ff",
". c #dcdcdc",
"# c #ff0000",
"y c #ffff00",
"................................",
"................................",
"................................",
"................................",
"................................",
"................................",
"................................",
"................................",
"................................",
"......bbbbbbbbbbbbbbbbbbbbb.....",
"......bbbbbbbbbbbbbbbbbbbbb.....",
"......bb.................bb.....",
"......bb.........aa......bb.....",
"......bb.........aa......bb.....",
".bbbbbbb.........aa......bb.....",
"......bb.........aa......bb.....",
"......bb.........aa......bb.....",
"......bb.........aa....a.bb.....",
".bbbbbbb.........aaaaaaa.bb.....",
"......bb.........aaaaaaa.bbbbbb.",
"......bb.................bbbbbb.",
"......bb.................bb.....",
".bbbbbbb.................bb.....",
"......bb.................bb.....",
"......bb.................bb.....",
"......bb.................bb.....",
".bbbbbbb.................bb.....",
"......bb.................bb.....",
"......bb.................bb.....",
"......bbbbbbbbbbbbbbbbbbbbb.....",
"......bbbbbbbbbbbbbbbbbbbbb.....",
"................................"
};
