/* XPM */
static char * lorenz_xpm[] = {
"32 32 16 1",
" 	c #060905",
".	c #1C1E1C",
"+	c #2B2D2A",
"@	c #393B38",
"#	c #494B48",
"$	c #575956",
"%	c #656764",
"&	c #767875",
"*	c #858784",
"=	c #949693",
"-	c #A7A9A6",
";	c #B6B8B5",
">	c #C6C8C5",
",	c #D7D9D6",
"'	c #E7E9E6",
")	c #FDFFFC",
"))))))))))))))))))))))))))))))))",
"))))))))))))))))))))))))))))))))",
"))))))))))))))))))))))))))))))))",
"))))))))))))))))))))))))))))))))",
"))))))))))))))))))))))))))))))))",
"))))))))))))))))))))))))))))))))",
"))))))))))))))))))))))))))))))))",
"))))))))))))))))))))))))))))))))",
"))))))))))))))))''''')))))))))))",
")))))))))))))),,'',,',,'))))))))",
"))))))))))))','>;;>>-->'>'))))))",
"))))))))))))',,-========,;')))))",
")))))))))))',>=%&&*-*&&&&,;,))))",
")))))))))))>=-&*&$@@@#$%&$>>,)))",
")))))))'',>>**&$@+#&*#@@%&&>>,))",
"))))))>)-;;%$@.+.$$$%$*@@&&=,,))",
"))))),'=;%@@.##++@%),>&*@$*&>',)",
")))''>=*#@#@##++@@*>>)'&%$*=-,')",
"))''--&@###;>=$++.&-)))&-%=-;>')",
")),,>*#$#*)));$+ .*,)))%*$==;;')",
"),);;%$%&')))>&. .%,))>$%$*=-,')",
")'',=&=*>)))),$...$$-=$*@$*&>',)",
"))'>=*==;))))-$@++@==**+#*&*,,')",
")),,-****,''>$##$$@@%%+#%&&,>,))",
"))',=&&*&*-=$%%$=#%%*$&%*%;>,)))",
")')>,&&%=*=**#$-;%**-***%,;,')))",
"),);,;&%%&*&%%*>=>*===*=,;''))))",
")),)>;'=**==*=,-,;>>>;;,>'')))))",
"))),)'=>)>;;,'=),',>,,'>')))))))",
")))),'),-----;)'),,'''')))))))))",
")))))''''')))'''))))))))))))))))",
"))))))))))''')))))))))))))))))))"};
