/* XPM */
static const char *lp2q3[] = {
/* width height num_colors chars_per_pixel */
"    32    32       16            1",
/* colors */
"` c #000000",
". c #800000",
"# c #008000",
"a c #808000",
"b c #000080",
"c c #800080",
"d c #008080",
"e c #808080",
"f c #c0c0c0",
"g c #ff0000",
"h c #00ff00",
"i c #ffff00",
"j c #0000ff",
"k c #ff00ff",
"l c #00ffff",
"m c #ffffff",
/* pixels */
"aaaaaaaaaaaaaaaaaaaaaaaaaaaaaaaa",
"aaaaaaaaaaaaaaaaaaaaaaaaaaaaaaaa",
"aaaaaaaaaaaaaaaaaaaaaaaaaaaaaaaa",
"aaaaaaaaaaaaaaaaaaaaaaaaaaaaaaaa",
"aaaaaaaaaaaaaaaaaaaaaaaaaaaaaaaa",
"aaaaaaaaaaaaaaaaaaaaaaaaaaaaaaaa",
"aaaaaaaaaaaahhhhhhaaaaaaaaaaaaaa",
"aaaaaaaaaaaahhaaahhaaaaaaaaaaaaa",
"aaaaaaaaaaaahhaaahhaaaaaaaaaaaaa",
"aaaaaaaaaaaahhaaahhaaaaaaaaaaaaa",
"aaaaaaaaaaaahhaaahhaaahhaaaaaaaa",
"aaaaaaaaaaaahhaaahhaahaahaaaaaaa",
"aaaaaaaaaaaahhhhhhaaaaaahaaaaaaa",
"aaaaaaaaaaaahhaaaaaaaaaahaaaaaaa",
"aaaaaaaaaaaahhaaaaaaaaahaaaaaaaa",
"aaaaaaaaaaaahhaaaaaaaahaaaaaaaaa",
"aaaaaaaaaaaahhaaaaaaahaaaaaaaaaa",
"aaaaaaaaaaaahhaaaaaahhhhhaaaaaaa",
"aaaaaaaaaaaaaaaaaaaaaaaaaaaaaaaa",
"aaaaaaaaahhhhhhhhhhhhhhhhhhhhhaa",
"aaaaaaaaahhhhhhhhhhhhhhhhhhhhhaa",
"aaaaaaaaaaaaaaaaaaaaaaaaaaaaaaaa",
"aaaaaaaaaaaahhhhaaaaaaaaaaaaaaaa",
"aaaaaaaaaaahaaaahaaaaaaaaaaaaaaa",
"aaaaaaaaaaahaaaahaaaahhhaaaaaaaa",
"aaaaaaaaaaahaaaahaaahaaahaaaaaaa",
"aaaaaaaaaaahaaaahaaaaaaahaaaaaaa",
"aaaaaaaaaaahahaahaaaaahhaaaaaaaa",
"aaaaaaaaaaahaahahaaaaaaahaaaaaaa",
"aaaaaaaaaaaahhhhaaaahaaahaaaaaaa",
"aaaaaaaaaaaaaaahhaaaahhhaaaaaaaa",
"aaaaaaaaaaaaaaaahaaaaaaaaaaaaaaa"
};
