/* XPM */
static const char* mini[]={
"16 16 7 1",
". c #008000",
"c c #00ffff",
"b c #c0ffc0",
"# c #ffff00",
"e c #0000ff",
"d c #ffffff",
"a c #ff0000",
"................",
"................",
".###.aaa.bbb....",
".###caaacbbbcc..",
".###.aaa.bbb.c..",
"..a..........c..",
"..a..........c..",
".ddd.....eee.c..",
".dddccccce#ecc..",
".ddd.....eee.c..",
"..c..........c..",
"..c......###.c..",
"..ccccccc#e#cc..",
".........###....",
"................",
"................"};
