/* XPM */
static const char* mo2q2[]={
"48 48 9 1",
"b c #008000",
"e c #00ffff",
"# c #000000",
"g c #c0ffc0",
"c c #ffff00",
". c None",
"a c #0000ff",
"f c #ffffff",
"d c #ff0000",
"................................................",
"................................................",
"................................................",
"................................................",
"................................................",
"................................................",
"................................................",
"................................................",
".........###############################........",
".........#aaaaaaaaaaaaaaaaaaaaaaaaaaaab##.......",
".........#aaaaaaaaaaaaaaaaaaaaaaaaaaaab##.......",
".........#bbbbbbbbbbbbbbbbbbbbbbbbbbbbb##.......",
".........#bbcccccbbdddddbbaaaaabbbbbbbb##.......",
".........#bbcccccbbdd#ddbbaaacabbbbbbbb##.......",
".........#bbc###ceedd#ddeeaacaceeebbbbb##.......",
".........#bbcccccbbdd#ddbbacaaabbebbbbb##.......",
".........#bbcccccbbdddddbbaaaaabbebbbbb##.......",
".........#bbbbdbbbbbbbbbbbbbbbbbbebbbbb##.......",
".........#bbbbdbbbbbbbbbbbbbbbbbbebbbbb##.......",
".........#bbbbdbbbbbbbbbbbbbbbbbbebbbbb##.......",
".........#bbfffffbbbbbgggggbbbbbbebbbbb##.......",
".........#bbf#f#fbbbbbgaaagbbbbbbebbbbb##.......",
".........#bbf#f#feeeeeggaggeeeeeeebbbbb##.......",
".........#bbf###fbbbbbgggggbbbbbbebbbbb##.......",
".........#bbfffffbbbbbgggggbbbbbbebbbbb##.......",
".........#bbbbebbbbbbbbbbbbbbbbbbebbbbb##.......",
".........#bbbbebbbbbbbbbbbbbbbbbbebbbbb##.......",
".........#bbbbebbbbbbbcccccbbbbbbebbbbb##.......",
".........#bbbbebbbbbbbcccacbbbbbbebbbbb##.......",
".........#bbbbeeeeeeeeccaaceeeeeeebbbbb##.......",
".........#bbbbbbbbbbbbcaaccbbbbbbbbbbbb##.......",
".........#bbbbbbbbbbbbcccccbbbbbbbbbbbb##.......",
".........#bbbbbbbbbbbbbbbbbbbbbbbbbbbbb##.......",
".........#bbbbbbbbbbbbbbbbbbbbbbbbbbbbb##.......",
".........#bbbbbbbbbbbbbbbbbbbbbbbbbbbbb##.......",
".........#bbbbbbbbbbbbbbbbbbbbbbbbbbbbb##.......",
".........################################.......",
"..........###############################.......",
"................................................",
"................................................",
"................................................",
"................................................",
"................................................",
"................................................",
"................................................",
"................................................",
"................................................",
"................................................"};
