/* XPM */
static char *mod_open1[]={
"20 20 11 1",
". c None",
"# c #000000",
"c c #0000ff",
"a c #008000",
"h c #00ff00",
"d c #00ffff",
"i c #808080",
"e c #c0c0c0",
"g c #ff0000",
"b c #ffff00",
"f c #ffffff",
"....................",
".........##########.",
"....#....#aaaaaaaa#.",
"....##...#abbaccaa#.",
"..#####..#abbaccaa#.",
"..######.#aaaaaaaa#.",
".######..#aaddaeea#.",
".##.##...#aaddaeea#.",
".##.#....#aaaaaaaa#.",
".##......##########.",
".##.................",
".##.................",
"....................",
".###########........",
".#ffffffffe#........",
".#fgggeeehi#........",
".#feeeeeehi#........",
".#eiiiiiiii#........",
".###########........",
"...................."};
