/* XPM */
static char *mod_save1[]={
"20 20 10 1",
". c None",
"# c #000000",
"f c #0000ff",
"a c #008000",
"c c #00ffff",
"d c #808080",
"e c #c0c0c0",
"h c #ff0000",
"b c #ffff00",
"g c #ffffff",
"....................",
".########...........",
".#aaaaaa#...........",
".#abbacc#...........",
".#abbacc#.####de....",
".#aaaaaa#.#####d....",
".#affadd#....d##....",
".#affadd#.....##....",
".#aaaaaa#.....##....",
".########...######..",
".............####...",
"..............##....",
"....................",
"........###########.",
"........#gggggggge#.",
"........#ghheeeeed#.",
"........#geeeeeeed#.",
"........#edddddddd#.",
"........###########.",
"...................."};
