/* XPM */
static const char *mod_open[] = {
/* width height num_colors chars_per_pixel */
"    20    20       16            1",
/* colors */
"` c #000000",
". c #800000",
"# c #008000",
"a c #808000",
"b c #000080",
"c c #800080",
"d c #008080",
"e c #808080",
"f c None",
"g c #ff0000",
"h c #00ff00",
"i c #ffff00",
"j c #0000ff",
"k c #ff00ff",
"l c #00ffff",
"m c #ffffff",
/* pixels */
"ffffffffffffffffffff",
"fffffffff``````````f",
"ffff`ffff`########`f",
"ffff``fff`#ii#jj##`f",
"ff`````ff`#ii#jj##`f",
"ff``````f`########`f",
"f``````ff`##ll#ff#`f",
"f``f``fff`##ll#ff#`f",
"f``f`ffff`########`f",
"f``ffffff``````````f",
"f``fffffffffffffffff",
"f``fffffffffffffffff",
"ffffffffffffffffffff",
"f```````````ffffffff",
"f`mmmmmmmmf`ffffffff",
"f`mgggfffhe`ffffffff",
"f`mffffffhe`ffffffff",
"f`feeeeeeee`ffffffff",
"f```````````ffffffff",
"ffffffffffffffffffff"
};
