/* XPM */
static const char *model_icon[]={
"32 32 10 1",
"# c #008000",
"a c #ff8000",
"f c #400000",
"e c #c0ffc0",
"d c #ffff00",
". c None",
"h c #0000ff",
"c c #dcdcdc",
"b c #ffffff",
"g c #ff0000",
"................................",
"................................",
"................................",
"................................",
"..############################..",
"..###############aaaa#########..",
"..#############bbaaaab########..",
"..#############b#aaaab#cccc###..",
"..###dddd##eeeeb#aaaabbcfccgg#..",
"..###ddfdbbeeeeb#######ccfc#g#..",
"..###dfdd##eeee######bbcccc#g#..",
"..###dddd##eeeeb#aaaab######g#..",
"..####b########b#aaaab######g#..",
"..####b########bbaaaab######g#..",
"..####b##########aaaa#######g#..",
"..####b#####################g#..",
"..####b##hhhh###############g#..",
"..####b##hddh###############g#..",
"..####bbbhhhhgggggggggggggggg#..",
"..#######hddh#################..",
"..#######hhhh#################..",
"..############################..",
"..############################..",
"..############################..",
"..############################..",
"..############################..",
"................................",
"................................",
"................................",
"................................",
"................................",
"................................"};
