/* XPM */
static const char *newgraph_icon[]={
"22 22 18 1",
"b c #008000",
"n c #ff00ff",
"i c #000000",
"f c #00ff00",
"g c #c0c0c0",
"j c #800080",
"o c #00ffff",
"k c #0000c0",
"p c #808080",
"h c #c0ffc0",
"# c #303030",
". c None",
"a c #ffffff",
"m c #0000ff",
"c c #c00000",
"d c #00c000",
"l c #404040",
"e c #ffff00",
"......iiiii...........",
"......ifffi...........",
"......ifffi...........",
"......ifffi...........",
"..iiiiifffiiiii.......",
"..ifffffffffffi.......",
".eifffffffffffieeeeee.",
".eiiiiifffiiiiimmmmme.",
".effffiffficmccmmmmme.",
".effffifffimmmccmmmme.",
".emmmmifffifmmmccmmme.",
".eaaaaiiiiiffaaaccaae.",
".emmmmccmmamffmmmccme.",
".emmmccmmmammffmmmcce.",
".emmccmmmmammmffmmmme.",
".emccmmmmmammmmffmmme.",
".eccmmmmmmammmmmffmme.",
"......................",
"......................",
"......................",
"......................",
"......................"};
