/* XPM */
static const char *plot[]={
"32 32 6 1",
"c c #000000",
"# c #ffff00",
". c None",
"a c #0000ff",
"b c #ffffff",
"d c #ff0000",
"................................",
"................................",
"................................",
"................................",
"................................",
"...##########################...",
"...#aaaaaaaaaaabaaaaaaaaaaaa#c..",
"...#aaaaaaaaaaabaaaaaaaaaaaa#c..",
"...#aaaaaaaaaa#######aaaaaaa#c..",
"...#aaaaaaaaa##baaaa#aaaaaaa#c..",
"...##aaaaaaaa#abaaaa#aaaaaaa#c..",
"...##aaaaadddddddaaa##aaaaaa#c..",
"...#a#aaaada#aabddaaa#aaaaaa#c..",
"...#a#aaddaa#aabadaaa#aaaaaa#c..",
"...#a#aadaaa#aabaadaa#aaaada#c..",
"...#bb#bdbbb#bbbbbdbb#bbbbdb#c..",
"...#aa#ddaaa#aabaadaa#aaadda#c..",
"...#aa#daaaa#aabaadaa#aaadaa#c..",
"...#aaddaaa##aabaadda#aaddaa#c..",
"...#ddd#####aaabaaaddddddaaa#c..",
"...#aaaaaaaaaaabaaaaa##aaaaa#c..",
"...#aaaaaaaaaaabaaaaaa#######c..",
"...#aaaaaaaaaaabaaaaaaaaaaaa#c..",
"...#aaaaaaaaaaaaaaaaaaaaaaaa#c..",
"...##########################c..",
"....cccccccccccccccccccccccccc..",
"................................",
"................................",
"................................",
"................................",
"................................",
"................................"};
