/* XPM */
static const char *run_icon[] = {
/* width height num_colors chars_per_pixel */
"    20    20       16            1",
/* colors */
"` c #000000",
". c #800000",
"# c #008000",
"a c #808000",
"b c #000080",
"c c #800080",
"d c #008080",
"e c #808080",
"f c None",
"g c #ff0000",
"h c #00ff00",
"i c #ffff00",
"j c #0000ff",
"k c #ff00ff",
"l c #00ffff",
"m c #ffffff",
/* pixels */
"ffffffffffffffffffff",
"fffffff````````fffff",
"fffffff`ggggg`ffffff",
"ffffff`ggggg`fffffff",
"ffffff`gggg`ffffffff",
"fffff`gggg`fffffffff",
"fffff`ggg````fffffff",
"ffff`ggggggg`fffffff",
"ffff````ggg`ffffffff",
"ffffff`ggg`fffffffff",
"fffff``gg````fffffff",
"fffff`ggggg`ffffffff",
"ffff````ii`fffffffff",
"fffffff`i`ffffffffff",
"fffffff``fffffffffff",
"fffffff`ffffffffffff",
"ffffffffffffffffffff",
"ffffffffffffffffffff",
"ffffffffffffffffffff",
"ffffffffffffffffffff"
};
