/* XPM */
static const char *run0[] = {
/* width height num_colors chars_per_pixel */
"    20    20       16            1",
/* colors */
"` c #000000",
". c #800000",
"# c #008000",
"a c #808000",
"b c #000080",
"c c #800080",
"d c #008080",
"e c #808080",
"f c None",
"g c #ff0000",
"h c #00ff00",
"i c #ffff00",
"j c #0000ff",
"k c #ff00ff",
"l c #00ffff",
"m c #ffffff",
/* pixels */
"ffffffffffffffffffff",
"fffffff````````fffff",
"fffffff`#hhh#`ffffff",
"ffffff`#ihhh`fffffff",
"ffffff`hhhh`ffffffff",
"fffff`hhhh`fffffffff",
"fffff`hhh````f````ff",
"ffff`#hhhhh#`fffffff",
"ffff````hhh`ff````ff",
"ffffff`hhh`fffffffff",
"ffffff`hh````fffffff",
"fffff`hhhhh`ffffffff",
"fffff````h`fffffffff",
"fffffff`#`ffffffffff",
"fffffff``fffffffffff",
"fffffff`ffffffffffff",
"ffffffffffffffffffff",
"ffffffffffffffffffff",
"ffffffffffffffffffff",
"ffffffffffffffffffff"
};
