/* XPM */
static const char *run_p1[] = {
/* width height num_colors chars_per_pixel */
"    20    20       16            1",
/* colors */
"` c #000000",
". c #800000",
"# c #008000",
"a c #808000",
"b c #000080",
"c c #800080",
"d c #008080",
"e c #808080",
"f c None",
"g c #ff0000",
"h c #00ff00",
"i c #ffff00",
"j c #0000ff",
"k c #ff00ff",
"l c #00ffff",
"m c #ffffff",
/* pixels */
"ffffffffffffffffffff",
"ffffffjjjfffffffffff",
"fffffffjjjffffffffff",
"ffffffffjjjfffffffff",
"fffffffffjjjffffffff",
"ffffffffjjjff`ffffff",
"fffffffjjfff``ffffff",
"ffffffffjjf``fffffff",
"ffffffeefj`````effff",
"ffff````fgg``f``efff",
"fff````fffff``f``fff",
"ffe``ffffffff`f``eff",
"ff``ffffffffffff``ff",
"ffe``ffffffffff``eff",
"fff````ffffff````fff",
"ffffe``````````effff",
"fffffffe````efffffff",
"ffffffffffffffffffff",
"ffffffffffffffffffff",
"ffffffffffffffffffff"
};
