/* XPM */
static const char *showoutdata_icon[]={
"22 22 18 1",
"b c #008000",
"n c #ff00ff",
"i c #000000",
"f c #00ff00",
"g c #c0c0c0",
"j c #800080",
"o c #00ffff",
"k c #0000c0",
"p c #808080",
"h c #c0ffc0",
"# c #303030",
". c None",
"a c #ffffff",
"m c #0000ff",
"c c #c00000",
"d c #00c000",
"l c #404040",
"e c #ffff00",
"......................",
"......................",
".ppppppppppppppppp....",
".paaaapaaaaaaaaaai....",
".paaaapaaaaaaaaaai....",
".piiiiiiiiiiiiiiii....",
".paaaapaaaaaaaaaai....",
".paaiapaggiippgiai....",
".paaaapaaaaaaaaaai....",
".pgggggggggggggggi....",
".paaaapaaaaaaaaaai....",
".paaiapaiigp iggai....",
".paaaapaaaaaaaaaai....",
".pgggggggggggggggi....",
".paaaapaaaaaaaaaai....",
".paaiapappi iipaai....",
".paaaapaaaaaaaaaai....",
".pgggggggggggggggi....",
".paaaapaaaaaaaaaai....",
".piiiiiiiiiiiiiiii....",
"......................",
"......................"};
