/* XPM */
static const char *struct[]={
"32 32 8 1",
"# c #008000",
"d c #ff00ff",
"b c #00ff00",
"a c #000000",
"f c #ffff00",
". c None",
"e c #0000ff",
"c c #ff0000",
"................................",
"................................",
"................................",
"................................",
"................................",
"................................",
"...#####a#####a#####a####a###...",
"...#####a#####a#####a####a###...",
"...#####a#####a#####a####a###...",
"...#####a#####a#####a####a###...",
"...aaaaaaaaaaaaaaaaaaaaaaaaaa...",
"...###b#a##cc#a#####a####a###...",
"...#bbb#a#c#c#a#####a#ddda###...",
"...##bb#a##cc#a#####a#dd#a###...",
"...#bbb#a#c#c#a#####a#ddda###...",
"...aabaaaaaaaaaaaaaaaaaaaaaaa...",
"...#ee##a#####a#####a####a###...",
"...#eee#a#####a#ff#fa####a###...",
"...#e#e#a#####a#ffffa####a###...",
"...##ee#a#####a#ff##a####a###...",
"...aaaaaaaaaaaaaaaaaaaaaaaaaa...",
"...#####a#####a#####a####a###...",
"...#####a#####a#####a####a###...",
"...#####a#####a#####a####a###...",
"...#####a#####a#####a####a###...",
"...#####a#####a#####a####a###...",
"................................",
"................................",
"................................",
"................................",
"................................",
"................................"};
